<svg width="180" height="40" viewBox="0 0 180 40" fill="none" xmlns="http://www.w3.org/2000/svg">
<g clip-path="url(#clip0)">
<path d="M88.9608 30.1538L87.2685 28.4615C86.3454 27.5385 84.6531 27.3846 83.73 28.4615C83.73 28.4615 83.4223 28.7692 82.9608 29.2308C80.8069 31.3846 77.8839 32.4615 74.9608 32.4615C68.3454 32.4615 62.9608 26.7692 62.9608 20C62.9608 13.2308 68.3454 7.53846 74.9608 7.53846C77.8839 7.53846 80.8069 8.61539 82.9608 10.7692L83.5762 11.3846C84.4992 12.3077 86.1916 12.3077 87.1146 11.3846L88.8069 9.69231C89.73 8.76923 89.8839 7.07692 88.8069 6.15385L87.73 5.07692C84.3454 1.84615 79.73 0 74.9608 0C64.1916 0 55.5762 8.92308 55.5762 20C55.5762 31.0769 64.3454 40 74.9608 40C79.73 40 84.3454 38.1538 87.8839 34.9231L88.9608 33.8462C90.0377 32.7692 90.0377 31.2308 88.9608 30.1538Z" fill="#1A2834"/>
<path d="M123.731 0C113.885 0 106.654 8.15385 106.654 18.1538V37.3846C106.654 38.7692 107.731 40 109.116 40H111.424C112.808 40 113.885 38.7692 113.885 37.3846V17.2308C113.885 11.8462 118.193 7.38462 123.424 7.38462H123.577H123.731C128.962 7.38462 133.27 11.8462 133.27 17.2308V37.5385C133.27 38.9231 134.347 40.1538 135.731 40.1538H138.039C139.424 40.1538 140.5 38.9231 140.5 37.5385V18.1538C140.808 8.30769 133.577 0 123.731 0Z" fill="#1A2834"/>
<path d="M102.038 18V2.46154C102.038 1.07692 100.808 0 99.4231 0H97.1154C95.7308 0 94.5 1.07692 94.5 2.46154V25.5385V37.5385C94.5 38.9231 95.7308 40 97.1154 40H99.4231C100.808 40 102.038 38.9231 102.038 37.5385V18Z" fill="#1A2834"/>
<path d="M178.961 30.1538L177.268 28.4615C176.345 27.5385 174.653 27.3846 173.73 28.4615C173.73 28.4615 173.422 28.7692 172.961 29.2308C170.807 31.3846 167.884 32.4615 164.961 32.4615C158.345 32.4615 152.961 26.7692 152.961 20C152.961 13.2308 158.345 7.53846 164.961 7.53846C167.884 7.53846 170.807 8.61539 172.961 10.7692L173.576 11.3846C174.499 12.3077 176.192 12.3077 177.115 11.3846L178.807 9.69231C179.73 8.76923 179.884 7.07692 178.807 6.15385L177.73 5.07692C174.345 1.84615 169.73 0 164.961 0C154.192 0 145.576 8.92308 145.576 20C145.576 31.0769 154.345 40 164.961 40C169.73 40 174.345 38.1538 177.884 34.9231L178.961 33.8462C180.038 32.7692 180.038 31.2308 178.961 30.1538Z" fill="#1A2834"/>
<path d="M35.1157 40.0005H32.3465C30.6541 40.0005 29.2695 38.6158 29.2695 36.9235V17.2312C29.2695 15.5389 30.6541 14.1543 32.3465 14.1543H35.1157C36.808 14.1543 38.1926 15.5389 38.1926 17.2312V36.9235C38.1926 38.6158 36.808 40.0005 35.1157 40.0005Z" fill="#3796B9"/>
<path d="M20.8071 40.0003H18.0379C16.3456 40.0003 14.9609 38.6157 14.9609 36.9234V25.8465C14.9609 24.1541 16.3456 22.7695 18.0379 22.7695H20.8071C22.4994 22.7695 23.884 24.1541 23.884 25.8465V36.9234C23.884 38.6157 22.4994 40.0003 20.8071 40.0003Z" fill="#00A5AB"/>
<path d="M6.5 39.9992H3.57692C1.88462 39.9992 0.5 38.6146 0.5 36.9223V34.1531C0.5 32.4608 1.88462 31.0762 3.57692 31.0762H6.34615C8.03846 31.0762 9.42308 32.4608 9.42308 34.1531V36.9223C9.57692 38.6146 8.19231 39.9992 6.5 39.9992Z" fill="#1EAF92"/>
<path d="M3.57692 0.154297H6.34615C8.03846 0.154297 9.42308 1.53891 9.42308 3.23122V22.7697C9.42308 24.462 8.03846 25.8466 6.34615 25.8466H3.57692C1.88462 25.8466 0.5 24.462 0.5 22.7697V3.38507C0.5 1.53891 1.88462 0.154297 3.57692 0.154297Z" fill="#D5D5D5"/>
<path d="M17.8855 0.154297H20.6547C22.3471 0.154297 23.7317 1.53891 23.7317 3.23122V14.3081C23.7317 16.0004 22.3471 17.3851 20.6547 17.3851H17.8855C16.1932 17.3851 14.8086 16.0004 14.8086 14.3081V3.38507C14.8086 1.53891 16.1932 0.154297 17.8855 0.154297Z" fill="#D5D5D5"/>
<path d="M32.1922 0.154297H34.9614C36.6537 0.154297 38.0383 1.53891 38.0383 3.23122V6.1543C38.0383 7.8466 36.6537 9.23122 34.9614 9.23122H32.1922C30.4998 9.23122 29.1152 7.8466 29.1152 6.1543V3.38507C29.1152 1.53891 30.4998 0.154297 32.1922 0.154297Z" fill="#D5D5D5"/>
</g>
<defs>
<clipPath id="clip0">
<rect width="179.231" height="40" fill="white" transform="translate(0.5)"/>
</clipPath>
</defs>
</svg>
